<?xml version="1.0" encoding="UTF-8"?>
<svg width="2470px" height="1577px" viewBox="0 0 2470 1577" version="1.1" xmlns="http://www.w3.org/2000/svg" xmlns:xlink="http://www.w3.org/1999/xlink">
    <!-- Generator: Sketch 55.2 (78181) - https://sketchapp.com -->
    <title>Artboard</title>
    <desc>Created with Sketch.</desc>
    <g id="Artboard" stroke="none" stroke-width="1" fill="none" fill-rule="evenodd">
        <path d="M816.5,839.5 L816.5,940 L355,940 L355,590 L812,590 L812,690.5 L480,690.5 L480,719 L747,719 L747,811 L480,811 L480,839.5 L816.5,839.5 Z M1303.5,762.5 C1327.50012,766.166685 1344.49995,774.249937 1354.5,786.75 C1364.50005,799.250063 1369.5,816.83322 1369.5,839.5 L1369.5,848 C1369.5,878.333485 1362.91673,901.083258 1349.75,916.25 C1336.58327,931.416742 1315.16682,939.33333 1285.5,940 L851.5,940 L851.5,590 L1260,590 C1291.33349,590 1313.99993,597.499925 1328,612.5 C1342.00007,627.500075 1349,650.66651 1349,682 L1349,690.5 C1349,709.500095 1345.58337,724.916608 1338.75,736.75 C1331.91663,748.583392 1320.16675,757.16664 1303.5,762.5 Z M976.5,719 L1208,719 C1214.00003,719 1218.08332,718.166675 1220.25,716.5 C1222.41668,714.833325 1223.5,711.500025 1223.5,706.5 L1223.5,703 C1223.5,698.33331 1222.41668,695.083343 1220.25,693.25 C1218.08332,691.416657 1214.00003,690.5 1208,690.5 L976.5,690.5 L976.5,719 Z M1244.5,823.5 C1244.5,818.499975 1243.41668,815.166675 1241.25,813.5 C1239.08332,811.833325 1235.00003,811 1229,811 L976.5,811 L976.5,839.5 L1229.5,839.5 C1235.16669,839.5 1239.08332,838.583343 1241.25,836.75 C1243.41668,834.916657 1244.5,831.66669 1244.5,827 L1244.5,823.5 Z M1919,940 L1760,940 L1661,839.5 L1528,839.5 L1528,940 L1403,940 L1403,590 L1826.5,590 C1855.83348,590 1877.58326,597.99992 1891.75,614 C1905.91674,630.00008 1913,654.99983 1913,689 L1913,736 C1913,769.666835 1905.91674,794.583252 1891.75,810.75 C1877.58326,826.916748 1855.83348,835 1826.5,835 L1807,835 L1919,940 Z M1788,712 C1788,707.33331 1786.91668,704.083343 1784.75,702.25 C1782.58332,700.416657 1778.50003,699.5 1772.5,699.5 L1528,699.5 L1528,730 L1772.5,730 C1778.50003,730 1782.58332,729.083343 1784.75,727.25 C1786.91668,725.416657 1788,722.16669 1788,717.5 L1788,712 Z" id="EBR" fill="#1C1C1C" fill-rule="nonzero"></path>
        <path d="M1985.17105,361 L1960.04753,443.172404 C1949.58284,477.399641 1921.62355,503.424295 1886.73503,511.412073 L1803,530.583333 L1894.07801,557.393621 C1924.88348,566.461709 1949.45999,589.772085 1960.14327,620.05532 L1985.17105,691 L2011.25101,617.072783 C2021.34025,588.473429 2043.86283,565.997769 2072.48315,555.968177 L2158,526 L2084.99881,510.650655 C2049.34916,503.154903 2020.59607,476.865858 2009.94486,442.028584 L1985.17105,361 Z" id="Path-Copy-3" fill="#6B00F6"></path>
        <path d="M408.6,1106 L362.7,1106 L362.7,1036 L408.6,1036 L408.6,1045.7 L373.2,1045.7 L373.2,1066.1 L406.6,1066.1 L406.6,1075.6 L373.2,1075.6 L373.2,1096.3 L408.6,1096.3 L408.6,1106 Z M466.4,1106 L454.2,1106 L478.4,1070 L455.7,1036 L467.8,1036 L484.5,1061.5 L486.5,1061.5 L503.1,1036 L515.2,1036 L492.5,1070 L516.7,1106 L504.5,1106 L486.5,1078.7 L484.5,1078.7 L466.4,1106 Z M564.6,1106 L564.6,1036 L595.7,1036 C599.633353,1036 603.199984,1036.94999 606.4,1038.85 C609.600016,1040.75001 612.116657,1043.39998 613.95,1046.8 C615.783343,1050.20002 616.7,1054.06665 616.7,1058.4 C616.7,1062.73336 615.783343,1066.61665 613.95,1070.05 C612.116657,1073.48335 609.600016,1076.14999 606.4,1078.05 C603.199984,1079.95001 599.633353,1080.9 595.7,1080.9 L575.1,1080.9 L575.1,1106 L564.6,1106 Z M595.4,1070.9 C598.400015,1070.9 600.94999,1069.75001 603.05,1067.45 C605.150011,1065.14999 606.2,1062.13335 606.2,1058.4 C606.2,1054.66665 605.166677,1051.66668 603.1,1049.4 C601.033323,1047.13332 598.466682,1046 595.4,1046 L575.1,1046 L575.1,1070.9 L595.4,1070.9 Z M713.3,1106 L668.9,1106 L668.9,1036 L679.4,1036 L679.4,1096 L713.3,1096 L713.3,1106 Z M789.4,1107 C783.199969,1107 777.550025,1105.46668 772.45,1102.4 C767.349975,1099.33332 763.300015,1095.06669 760.3,1089.6 C757.299985,1084.13331 755.8,1077.93337 755.8,1071 C755.8,1064.06663 757.299985,1057.86669 760.3,1052.4 C763.300015,1046.93331 767.349975,1042.66668 772.45,1039.6 C777.550025,1036.53332 783.199969,1035 789.4,1035 C795.600031,1035 801.266641,1036.53332 806.4,1039.6 C811.533359,1042.66668 815.599985,1046.93331 818.6,1052.4 C821.600015,1057.86669 823.1,1064.06663 823.1,1071 C823.1,1077.93337 821.600015,1084.13331 818.6,1089.6 C815.599985,1095.06669 811.533359,1099.33332 806.4,1102.4 C801.266641,1105.46668 795.600031,1107 789.4,1107 Z M789.4,1097 C793.666688,1097 797.566649,1095.91668 801.1,1093.75 C804.633351,1091.58332 807.433323,1088.51669 809.5,1084.55 C811.566677,1080.58331 812.6,1076.06669 812.6,1071 C812.6,1065.93331 811.566677,1061.41669 809.5,1057.45 C807.433323,1053.48331 804.633351,1050.41668 801.1,1048.25 C797.566649,1046.08332 793.666688,1045 789.4,1045 C785.199979,1045 781.333351,1046.08332 777.8,1048.25 C774.266649,1050.41668 771.466677,1053.48331 769.4,1057.45 C767.333323,1061.41669 766.3,1065.93331 766.3,1071 C766.3,1076.06669 767.333323,1080.58331 769.4,1084.55 C771.466677,1088.51669 774.266649,1091.58332 777.8,1093.75 C781.333351,1095.91668 785.199979,1097 789.4,1097 Z M903.6,1080.3 L929.4,1106 L916.3,1106 L890.9,1080.4 L886,1080.4 L886,1106 L875.5,1106 L875.5,1036 L906.8,1036 C910.733353,1036 914.283318,1036.94999 917.45,1038.85 C920.616683,1040.75001 923.116657,1043.39998 924.95,1046.8 C926.783343,1050.20002 927.7,1054.03331 927.7,1058.3 C927.7,1062.50002 926.800009,1066.26665 925,1069.6 C923.199991,1072.93335 920.766682,1075.54999 917.7,1077.45 C914.633318,1079.35001 911.300018,1080.3 907.7,1080.3 L903.6,1080.3 Z M886,1070.7 L906.5,1070.7 C909.500015,1070.7 912.033323,1069.55001 914.1,1067.25 C916.166677,1064.94999 917.2,1061.96669 917.2,1058.3 C917.2,1054.63332 916.166677,1051.63334 914.1,1049.3 C912.033323,1046.96665 909.500015,1045.8 906.5,1045.8 L886,1045.8 L886,1070.7 Z M991.3,1106 L980.8,1106 L980.8,1036 L991.3,1036 L991.3,1106 Z M1057.2,1106 L1046.7,1106 L1046.7,1036 L1062.1,1036 L1090.6,1090.7 L1092.6,1090.7 L1092.6,1036 L1103.1,1036 L1103.1,1106 L1087.7,1106 L1059.2,1051.3 L1057.2,1051.3 L1057.2,1106 Z M1191.4,1069.7 L1221,1069.7 L1221,1106 L1212.7,1106 L1211.7,1096.9 L1211.2,1096.9 C1209.06666,1099.56668 1206.05002,1101.91666 1202.15,1103.95 C1198.24998,1105.98334 1193.93336,1107 1189.2,1107 C1182.99997,1107 1177.33336,1105.46668 1172.2,1102.4 C1167.06664,1099.33332 1163.00002,1095.06669 1160,1089.6 C1156.99998,1084.13331 1155.5,1077.93337 1155.5,1071 C1155.5,1063.99996 1156.99998,1057.76669 1160,1052.3 C1163.00002,1046.83331 1167.06664,1042.58335 1172.2,1039.55 C1177.33336,1036.51665 1182.99997,1035 1189.2,1035 C1194.20002,1035 1198.83331,1036.01666 1203.1,1038.05 C1207.36669,1040.08334 1210.98332,1042.83332 1213.95,1046.3 C1216.91668,1049.76668 1219.06666,1053.63331 1220.4,1057.9 L1209.5,1057.9 C1207.76666,1054.03331 1205.05002,1050.91668 1201.35,1048.55 C1197.64998,1046.18332 1193.60002,1045 1189.2,1045 C1184.93331,1045 1181.03335,1046.08332 1177.5,1048.25 C1173.96665,1050.41668 1171.16668,1053.48331 1169.1,1057.45 C1167.03332,1061.41669 1166,1065.93331 1166,1071 C1166,1076.06669 1167.03332,1080.58331 1169.1,1084.55 C1171.16668,1088.51669 1173.96665,1091.58332 1177.5,1093.75 C1181.03335,1095.91668 1184.93331,1097 1189.2,1097 C1193.00002,1097 1196.49998,1096.11668 1199.7,1094.35 C1202.90002,1092.58332 1205.44999,1090.28335 1207.35,1087.45 C1209.25001,1084.61665 1210.26667,1081.70001 1210.4,1078.7 L1210.5,1077.9 L1191.4,1077.9 L1191.4,1069.7 Z M1339.5,1106 L1339.5,1036 L1370.7,1036 C1374.36668,1036 1377.68332,1036.84999 1380.65,1038.55 C1383.61668,1040.25001 1385.94999,1042.58332 1387.65,1045.55 C1389.35001,1048.51668 1390.2,1051.83332 1390.2,1055.5 C1390.2,1058.96668 1389.43334,1062.03332 1387.9,1064.7 C1386.36666,1067.36668 1384.63334,1069.29999 1382.7,1070.5 L1382.7,1071 C1384.90001,1072.06667 1386.86666,1073.98332 1388.6,1076.75 C1390.33334,1079.51668 1391.2,1082.76665 1391.2,1086.5 C1391.2,1090.16668 1390.35001,1093.48332 1388.65,1096.45 C1386.94999,1099.41668 1384.61668,1101.74999 1381.65,1103.45 C1378.68332,1105.15001 1375.36668,1106 1371.7,1106 L1339.5,1106 Z M1370,1066.4 C1372.66668,1066.4 1374.94999,1065.40001 1376.85,1063.4 C1378.75001,1061.39999 1379.7,1058.93335 1379.7,1056 C1379.7,1052.99998 1378.75001,1050.5 1376.85,1048.5 C1374.94999,1046.5 1372.66668,1045.5 1370,1045.5 L1350,1045.5 L1350,1066.4 L1370,1066.4 Z M1371,1096.5 C1373.66668,1096.5 1375.94999,1095.50001 1377.85,1093.5 C1379.75001,1091.49999 1380.7,1089.00002 1380.7,1086 C1380.7,1083.06665 1379.75001,1080.60001 1377.85,1078.6 C1375.94999,1076.6 1373.66668,1075.6 1371,1075.6 L1350,1075.6 L1350,1096.5 L1371,1096.5 Z M1490.3,1106 L1444.4,1106 L1444.4,1036 L1490.3,1036 L1490.3,1045.7 L1454.9,1045.7 L1454.9,1066.1 L1488.3,1066.1 L1488.3,1075.6 L1454.9,1075.6 L1454.9,1096.3 L1490.3,1096.3 L1490.3,1106 Z M1571.2,1106 L1560.7,1106 L1560.7,1080.7 L1535.2,1036 L1546.7,1036 L1565,1068.5 L1567,1068.5 L1585.3,1036 L1596.7,1036 L1571.2,1080.7 L1571.2,1106 Z M1672.6,1107 C1666.39997,1107 1660.75003,1105.46668 1655.65,1102.4 C1650.54997,1099.33332 1646.50001,1095.06669 1643.5,1089.6 C1640.49998,1084.13331 1639,1077.93337 1639,1071 C1639,1064.06663 1640.49998,1057.86669 1643.5,1052.4 C1646.50001,1046.93331 1650.54997,1042.66668 1655.65,1039.6 C1660.75003,1036.53332 1666.39997,1035 1672.6,1035 C1678.80003,1035 1684.46664,1036.53332 1689.6,1039.6 C1694.73336,1042.66668 1698.79998,1046.93331 1701.8,1052.4 C1704.80001,1057.86669 1706.3,1064.06663 1706.3,1071 C1706.3,1077.93337 1704.80001,1084.13331 1701.8,1089.6 C1698.79998,1095.06669 1694.73336,1099.33332 1689.6,1102.4 C1684.46664,1105.46668 1678.80003,1107 1672.6,1107 Z M1672.6,1097 C1676.86669,1097 1680.76665,1095.91668 1684.3,1093.75 C1687.83335,1091.58332 1690.63332,1088.51669 1692.7,1084.55 C1694.76668,1080.58331 1695.8,1076.06669 1695.8,1071 C1695.8,1065.93331 1694.76668,1061.41669 1692.7,1057.45 C1690.63332,1053.48331 1687.83335,1050.41668 1684.3,1048.25 C1680.76665,1046.08332 1676.86669,1045 1672.6,1045 C1668.39998,1045 1664.53335,1046.08332 1661,1048.25 C1657.46665,1050.41668 1654.66668,1053.48331 1652.6,1057.45 C1650.53332,1061.41669 1649.5,1065.93331 1649.5,1071 C1649.5,1076.06669 1650.53332,1080.58331 1652.6,1084.55 C1654.66668,1088.51669 1657.46665,1091.58332 1661,1093.75 C1664.53335,1095.91668 1668.39998,1097 1672.6,1097 Z M1769.2,1106 L1758.7,1106 L1758.7,1036 L1774.1,1036 L1802.6,1090.7 L1804.6,1090.7 L1804.6,1036 L1815.1,1036 L1815.1,1106 L1799.7,1106 L1771.2,1051.3 L1769.2,1051.3 L1769.2,1106 Z M1870.5,1106 L1870.5,1036 L1894.8,1036 C1901.13337,1036 1906.86664,1037.49998 1912,1040.5 C1917.13336,1043.50002 1921.14999,1047.66664 1924.05,1053 C1926.95001,1058.33336 1928.4,1064.3333 1928.4,1071 C1928.4,1077.6667 1926.95001,1083.66664 1924.05,1089 C1921.14999,1094.33336 1917.13336,1098.49998 1912,1101.5 C1906.86664,1104.50002 1901.13337,1106 1894.8,1106 L1870.5,1106 Z M1894.8,1096 C1899.13336,1096 1903.06665,1094.95001 1906.6,1092.85 C1910.13335,1090.74999 1912.89999,1087.80002 1914.9,1084 C1916.90001,1080.19998 1917.9,1075.86669 1917.9,1071 C1917.9,1066.13331 1916.90001,1061.80002 1914.9,1058 C1912.89999,1054.19998 1910.13335,1051.25001 1906.6,1049.15 C1903.06665,1047.04999 1899.13336,1046 1894.8,1046 L1881,1046 L1881,1096 L1894.8,1096 Z" id="EXPLORINGBEYOND" fill="#1C1C1C" fill-rule="nonzero"></path>
    </g>
</svg>