<?xml version="1.0" encoding="UTF-8"?>
<svg width="2470px" height="1577px" viewBox="0 0 2470 1577" version="1.1" xmlns="http://www.w3.org/2000/svg" xmlns:xlink="http://www.w3.org/1999/xlink">
    <!-- Generator: Sketch 55.2 (78181) - https://sketchapp.com -->
    <title>Artboard Copy 34</title>
    <desc>Created with Sketch.</desc>
    <g id="Artboard-Copy-34" stroke="none" stroke-width="1" fill="none" fill-rule="evenodd">
        <path d="M816.5,839.5 L816.5,940 L355,940 L355,590 L812,590 L812,690.5 L480,690.5 L480,719 L747,719 L747,811 L480,811 L480,839.5 L816.5,839.5 Z M1303.5,762.5 C1327.50012,766.166685 1344.49995,774.249937 1354.5,786.75 C1364.50005,799.250063 1369.5,816.83322 1369.5,839.5 L1369.5,848 C1369.5,878.333485 1362.91673,901.083258 1349.75,916.25 C1336.58327,931.416742 1315.16682,939.33333 1285.5,940 L851.5,940 L851.5,590 L1260,590 C1291.33349,590 1313.99993,597.499925 1328,612.5 C1342.00007,627.500075 1349,650.66651 1349,682 L1349,690.5 C1349,709.500095 1345.58337,724.916608 1338.75,736.75 C1331.91663,748.583392 1320.16675,757.16664 1303.5,762.5 Z M976.5,719 L1208,719 C1214.00003,719 1218.08332,718.166675 1220.25,716.5 C1222.41668,714.833325 1223.5,711.500025 1223.5,706.5 L1223.5,703 C1223.5,698.33331 1222.41668,695.083343 1220.25,693.25 C1218.08332,691.416657 1214.00003,690.5 1208,690.5 L976.5,690.5 L976.5,719 Z M1244.5,823.5 C1244.5,818.499975 1243.41668,815.166675 1241.25,813.5 C1239.08332,811.833325 1235.00003,811 1229,811 L976.5,811 L976.5,839.5 L1229.5,839.5 C1235.16669,839.5 1239.08332,838.583343 1241.25,836.75 C1243.41668,834.916657 1244.5,831.66669 1244.5,827 L1244.5,823.5 Z M1919,940 L1760,940 L1661,839.5 L1528,839.5 L1528,940 L1403,940 L1403,590 L1826.5,590 C1855.83348,590 1877.58326,597.99992 1891.75,614 C1905.91674,630.00008 1913,654.99983 1913,689 L1913,736 C1913,769.666835 1905.91674,794.583252 1891.75,810.75 C1877.58326,826.916748 1855.83348,835 1826.5,835 L1807,835 L1919,940 Z M1788,712 C1788,707.33331 1786.91668,704.083343 1784.75,702.25 C1782.58332,700.416657 1778.50003,699.5 1772.5,699.5 L1528,699.5 L1528,730 L1772.5,730 C1778.50003,730 1782.58332,729.083343 1784.75,727.25 C1786.91668,725.416657 1788,722.16669 1788,717.5 L1788,712 Z" id="EBR" fill="#1C1C1C" fill-rule="nonzero"></path>
        <path d="M1985.17105,361 L1960.04753,443.172404 C1949.58284,477.399641 1921.62355,503.424295 1886.73503,511.412073 L1803,530.583333 L1894.07801,557.393621 C1924.88348,566.461709 1949.45999,589.772085 1960.14327,620.05532 L1985.17105,691 L2011.25101,617.072783 C2021.34025,588.473429 2043.86283,565.997769 2072.48315,555.968177 L2158,526 L2084.99881,510.650655 C2049.34916,503.154903 2020.59607,476.865858 2009.94486,442.028584 L1985.17105,361 Z" id="Path-Copy-3" fill="#6B00F6"></path>
    </g>
</svg>