<?xml version="1.0" encoding="UTF-8"?>
<svg id="Layer_1" xmlns="http://www.w3.org/2000/svg" version="1.1" viewBox="0 0 1847.91 621.53">
  <!-- Generator: Adobe Illustrator 30.3.0, SVG Export Plug-In . SVG Version: 2.1.3 Build 182)  -->
  <defs>
    <style>
      .st0 {
        fill: #1c1c1c;
      }

      .st1 {
        fill: #6b00f6;
        fill-rule: evenodd;
      }
    </style>
  </defs>
  <g id="Artboard-Copy-34">
    <path id="EBR" class="st0" d="M483.53,486.56v100.5H22.05V237.07h456.98v100.5H147.04v28.5h266.99v92H147.04v28.5h336.49ZM970.51,409.56c24,3.67,41,11.75,51,24.25,10,12.5,15,30.08,15,52.75v8.5c0,30.33-6.58,53.08-19.75,68.25-13.17,15.17-34.58,23.08-64.25,23.75h-433.98V237.07h408.48c31.33,0,54,7.5,68,22.5,14,15,21,38.17,21,69.5v8.5c0,19-3.42,34.42-10.25,46.25-6.83,11.83-18.58,20.42-35.25,25.75ZM643.52,366.06h231.49c6,0,10.08-.83,12.25-2.5,2.17-1.67,3.25-5,3.25-10v-3.5c0-4.67-1.08-7.92-3.25-9.75s-6.25-2.75-12.25-2.75h-231.49v28.5ZM911.51,470.56c0-5-1.08-8.33-3.25-10s-6.25-2.5-12.25-2.5h-252.49v28.5h252.99c5.67,0,9.58-.92,11.75-2.75s3.25-5.08,3.25-9.75v-3.5ZM1585.98,587.05h-158.99l-99-100.5h-132.99v100.5h-124.99V237.07h423.48c29.33,0,51.08,8,65.25,24,14.17,16,21.25,41,21.25,75v47c0,33.67-7.08,58.58-21.25,74.75-14.17,16.17-35.92,24.25-65.25,24.25h-19.5l112,105ZM1454.99,359.06c0-4.67-1.08-7.92-3.25-9.75s-6.25-2.75-12.25-2.75h-244.49v30.5h244.49c6,0,10.08-.92,12.25-2.75s3.25-5.08,3.25-9.75v-5.5Z"/>
    <path id="Path-Copy-3" class="st1" d="M1652.15,8.08l-25.12,82.17c-10.46,34.23-38.42,60.25-73.31,68.24l-83.73,19.17,91.08,26.81c30.81,9.07,55.38,32.38,66.07,62.66l25.03,70.94,26.08-73.93c10.09-28.6,32.61-51.08,61.23-61.1l85.52-29.97-73-15.35c-35.65-7.5-64.4-33.78-75.05-68.62l-24.77-81.03h-.03Z"/>
  </g>
</svg>